<svg width="15" height="32" viewBox="0 0 15 32" fill="none" xmlns="http://www.w3.org/2000/svg">
<path d="M15 32H0V0H15V32Z" stroke="#E5E7EB"/>
<path d="M15 27H0V3H15V27Z" stroke="#E5E7EB"/>
<path d="M7.50007 3C8.32976 3 9.00007 3.67031 9.00007 4.5V6.17344C9.07507 6.18281 9.14538 6.19219 9.22038 6.20625C9.23913 6.21094 9.25319 6.21094 9.27194 6.21562L11.5219 6.62813C12.3376 6.77813 12.8766 7.56094 12.7266 8.37187C12.5766 9.18281 11.7938 9.72656 10.9829 9.57656L8.75632 9.16875C7.28913 8.95313 5.99538 9.09844 5.08601 9.45938C4.17663 9.82031 3.81101 10.3172 3.72663 10.7766C3.63288 11.2781 3.70319 11.5594 3.78288 11.7328C3.86725 11.9156 4.04069 12.1219 4.38288 12.3516C5.14694 12.8531 6.31882 13.1813 7.83757 13.5844L7.97351 13.6219C9.31413 13.9781 10.9548 14.4094 12.1735 15.2062C12.8391 15.6422 13.4673 16.2328 13.8563 17.0578C14.2548 17.8969 14.3391 18.8344 14.1563 19.8328C13.8329 21.6141 12.6048 22.8047 11.0813 23.4281C10.4391 23.6906 9.74069 23.8594 9.00007 23.9437V25.5C9.00007 26.3297 8.32976 27 7.50007 27C6.67038 27 6.00007 26.3297 6.00007 25.5V23.8641C5.98132 23.8594 5.95788 23.8594 5.93913 23.8547H5.92976C4.78601 23.6766 2.90632 23.1844 1.64069 22.6219C0.886005 22.2844 0.543818 21.3984 0.881318 20.6437C1.21882 19.8891 2.10476 19.5469 2.85944 19.8844C3.83913 20.3203 5.45163 20.7516 6.38444 20.8969C7.87976 21.1172 9.11257 20.9906 9.94694 20.6484C10.7391 20.325 11.1001 19.8563 11.2032 19.2938C11.2923 18.7969 11.2219 18.5109 11.1423 18.3375C11.0532 18.15 10.8798 17.9437 10.5329 17.7141C9.76413 17.2125 8.58757 16.8844 7.06413 16.4813L6.93288 16.4484C5.59694 16.0922 3.95632 15.6562 2.73757 14.8594C2.07194 14.4234 1.44851 13.8281 1.05944 13.0031C0.665693 12.1641 0.586005 11.2266 0.773505 10.2281C1.11101 8.4375 2.45163 7.275 3.97507 6.67031C4.59851 6.42188 5.28288 6.25313 6.00007 6.15469V4.5C6.00007 3.67031 6.67038 3 7.50007 3Z" fill="#10B981"/>
</svg>
