<svg width="12" height="16" viewBox="0 0 12 16" fill="none" xmlns="http://www.w3.org/2000/svg">
<path d="M12 16H0V0H12V16Z" stroke="#E5E7EB"/>
<g clip-path="url(#clip0_32_221)">
<path d="M6.00001 1.5C6.10782 1.5 6.21564 1.52344 6.31407 1.56797L10.7274 3.44063C11.243 3.65859 11.6274 4.16719 11.625 4.78125C11.6133 7.10625 10.657 11.3602 6.61876 13.2938C6.22735 13.4813 5.77267 13.4813 5.38126 13.2938C1.34298 11.3602 0.386729 7.10625 0.375011 4.78125C0.372667 4.16719 0.757042 3.65859 1.27267 3.44063L5.68829 1.56797C5.78439 1.52344 5.8922 1.5 6.00001 1.5ZM6.00001 3.06563V11.925C9.23439 10.3594 10.1039 6.89297 10.125 4.81406L6.00001 3.06563Z" fill="#16A34A"/>
</g>
<defs>
<clipPath id="clip0_32_221">
<path d="M0 1.5H12V13.5H0V1.5Z" fill="white"/>
</clipPath>
</defs>
</svg>
