<svg width="21" height="28" viewBox="0 0 21 28" fill="none" xmlns="http://www.w3.org/2000/svg">
<path d="M20.25 28H0V0H20.25V28Z" stroke="#E5E7EB"/>
<g clip-path="url(#clip0_32_117)">
<path d="M2.25 5.375C1.00898 5.375 0 6.38398 0 7.625V8.75H20.25V7.625C20.25 6.38398 19.241 5.375 18 5.375H2.25ZM20.25 12.125H0V18.875C0 20.116 1.00898 21.125 2.25 21.125H18C19.241 21.125 20.25 20.116 20.25 18.875V12.125ZM3.9375 16.625H6.1875C6.49687 16.625 6.75 16.8781 6.75 17.1875C6.75 17.4969 6.49687 17.75 6.1875 17.75H3.9375C3.62812 17.75 3.375 17.4969 3.375 17.1875C3.375 16.8781 3.62812 16.625 3.9375 16.625ZM7.875 17.1875C7.875 16.8781 8.12813 16.625 8.4375 16.625H12.9375C13.2469 16.625 13.5 16.8781 13.5 17.1875C13.5 17.4969 13.2469 17.75 12.9375 17.75H8.4375C8.12813 17.75 7.875 17.4969 7.875 17.1875Z" fill="#2563EB"/>
</g>
<defs>
<clipPath id="clip0_32_117">
<path d="M0 4.25H20.25V22.25H0V4.25Z" fill="white"/>
</clipPath>
</defs>
</svg>
