<svg width="23" height="28" viewBox="0 0 23 28" fill="none" xmlns="http://www.w3.org/2000/svg">
<path d="M22.5 28H0V0H22.5V28Z" stroke="#E5E7EB"/>
<g clip-path="url(#clip0_32_77)">
<path d="M1.6875 4.25C0.755859 4.25 0 5.00586 0 5.9375V17.1875C0 18.1191 0.755859 18.875 1.6875 18.875H2.25C2.25 20.7383 3.76172 22.25 5.625 22.25C7.48828 22.25 9 20.7383 9 18.875H13.5C13.5 20.7383 15.0117 22.25 16.875 22.25C18.7383 22.25 20.25 20.7383 20.25 18.875H21.375C21.9973 18.875 22.5 18.3723 22.5 17.75C22.5 17.1277 21.9973 16.625 21.375 16.625V14.375V13.25V12.5926C21.375 11.9949 21.1395 11.4219 20.7176 11L18 8.28242C17.5781 7.86055 17.0051 7.625 16.4074 7.625H14.625V5.9375C14.625 5.00586 13.8691 4.25 12.9375 4.25H1.6875ZM14.625 9.875H16.4074L19.125 12.5926V13.25H14.625V9.875ZM3.9375 18.875C3.9375 18.4274 4.11529 17.9982 4.43176 17.6818C4.74823 17.3653 5.17745 17.1875 5.625 17.1875C6.07255 17.1875 6.50178 17.3653 6.81824 17.6818C7.13471 17.9982 7.3125 18.4274 7.3125 18.875C7.3125 19.3226 7.13471 19.7518 6.81824 20.0682C6.50178 20.3847 6.07255 20.5625 5.625 20.5625C5.17745 20.5625 4.74823 20.3847 4.43176 20.0682C4.11529 19.7518 3.9375 19.3226 3.9375 18.875ZM16.875 17.1875C17.3226 17.1875 17.7518 17.3653 18.0682 17.6818C18.3847 17.9982 18.5625 18.4274 18.5625 18.875C18.5625 19.3226 18.3847 19.7518 18.0682 20.0682C17.7518 20.3847 17.3226 20.5625 16.875 20.5625C16.4274 20.5625 15.9982 20.3847 15.6818 20.0682C15.3653 19.7518 15.1875 19.3226 15.1875 18.875C15.1875 18.4274 15.3653 17.9982 15.6818 17.6818C15.9982 17.3653 16.4274 17.1875 16.875 17.1875Z" fill="#2563EB"/>
</g>
<defs>
<clipPath id="clip0_32_77">
<path d="M0 4.25H22.5V22.25H0V4.25Z" fill="white"/>
</clipPath>
</defs>
</svg>
