<svg width="18" height="24" viewBox="0 0 18 24" fill="none" xmlns="http://www.w3.org/2000/svg">
<path d="M18 24H0V0H18V24Z" stroke="#E5E7EB"/>
<g clip-path="url(#clip0_32_50)">
<path d="M17.1124 7.24375L15.3218 4.40938C15.1624 4.15625 14.8781 4 14.5749 4H3.42493C3.12181 4 2.83743 4.15625 2.67806 4.40938L0.884306 7.24375C-0.0406941 8.70625 0.778056 10.7406 2.50618 10.975C2.63118 10.9906 2.75931 11 2.88431 11C3.69993 11 4.42493 10.6438 4.92181 10.0938C5.41868 10.6438 6.14368 11 6.95931 11C7.77493 11 8.49993 10.6438 8.99681 10.0938C9.49368 10.6438 10.2187 11 11.0343 11C11.8531 11 12.5749 10.6438 13.0718 10.0938C13.5718 10.6438 14.2937 11 15.1093 11C15.2374 11 15.3624 10.9906 15.4874 10.975C17.2218 10.7438 18.0437 8.70938 17.1156 7.24375H17.1124ZM15.6156 11.9656H15.6124C15.4468 11.9875 15.2781 12 15.1062 12C14.7187 12 14.3468 11.9406 13.9999 11.8344V16H3.99993V11.8313C3.64993 11.9406 3.27493 12 2.88743 12C2.71556 12 2.54368 11.9875 2.37806 11.9656H2.37493C2.24681 11.9469 2.12181 11.925 1.99993 11.8938V16V18C1.99993 19.1031 2.89681 20 3.99993 20H13.9999C15.1031 20 15.9999 19.1031 15.9999 18V16V11.8938C15.8749 11.925 15.7499 11.95 15.6156 11.9656Z" fill="#4B5563"/>
</g>
<defs>
<clipPath id="clip0_32_50">
<path d="M0 4H18V20H0V4Z" fill="white"/>
</clipPath>
</defs>
</svg>
