<svg width="18" height="24" viewBox="0 0 18 24" fill="none" xmlns="http://www.w3.org/2000/svg">
<path d="M18 24H0V0H18V24Z" stroke="#E5E7EB"/>
<g clip-path="url(#clip0_32_192)">
<path d="M2 6C0.896875 6 0 6.89688 0 8V10C0 10.275 0.23125 10.4906 0.490625 10.5813C1.07812 10.7844 1.5 11.3438 1.5 12C1.5 12.6562 1.07812 13.2156 0.490625 13.4187C0.23125 13.5094 0 13.725 0 14V16C0 17.1031 0.896875 18 2 18H16C17.1031 18 18 17.1031 18 16V14C18 13.725 17.7687 13.5094 17.5094 13.4187C16.9219 13.2156 16.5 12.6562 16.5 12C16.5 11.3438 16.9219 10.7844 17.5094 10.5813C17.7687 10.4906 18 10.275 18 10V8C18 6.89688 17.1031 6 16 6H2ZM4 9.5V14.5C4 14.775 4.225 15 4.5 15H13.5C13.775 15 14 14.775 14 14.5V9.5C14 9.225 13.775 9 13.5 9H4.5C4.225 9 4 9.225 4 9.5ZM3 9C3 8.44688 3.44688 8 4 8H14C14.5531 8 15 8.44688 15 9V15C15 15.5531 14.5531 16 14 16H4C3.44688 16 3 15.5531 3 15V9Z" fill="#2563EB"/>
</g>
<defs>
<clipPath id="clip0_32_192">
<path d="M0 4H18V20H0V4Z" fill="white"/>
</clipPath>
</defs>
</svg>
