<svg width="16" height="18" viewBox="0 0 16 18" fill="none" xmlns="http://www.w3.org/2000/svg">
<g clip-path="url(#clip0_32_44)">
<path d="M5.625 3.9375C5.625 2.69648 6.63398 1.6875 7.875 1.6875C9.11602 1.6875 10.125 2.69648 10.125 3.9375V5.625H5.625V3.9375ZM3.9375 5.625H1.6875C0.755859 5.625 0 6.38086 0 7.3125V14.625C0 16.4883 1.51172 18 3.375 18H12.375C14.2383 18 15.75 16.4883 15.75 14.625V7.3125C15.75 6.38086 14.9941 5.625 14.0625 5.625H11.8125V3.9375C11.8125 1.76133 10.0512 0 7.875 0C5.69883 0 3.9375 1.76133 3.9375 3.9375V5.625ZM4.78125 7.3125C5.00503 7.3125 5.21964 7.40139 5.37787 7.55963C5.53611 7.71786 5.625 7.93247 5.625 8.15625C5.625 8.38003 5.53611 8.59464 5.37787 8.75287C5.21964 8.91111 5.00503 9 4.78125 9C4.55747 9 4.34286 8.91111 4.18463 8.75287C4.02639 8.59464 3.9375 8.38003 3.9375 8.15625C3.9375 7.93247 4.02639 7.71786 4.18463 7.55963C4.34286 7.40139 4.55747 7.3125 4.78125 7.3125ZM10.125 8.15625C10.125 7.93247 10.2139 7.71786 10.3721 7.55963C10.5304 7.40139 10.745 7.3125 10.9688 7.3125C11.1925 7.3125 11.4071 7.40139 11.5654 7.55963C11.7236 7.71786 11.8125 7.93247 11.8125 8.15625C11.8125 8.38003 11.7236 8.59464 11.5654 8.75287C11.4071 8.91111 11.1925 9 10.9688 9C10.745 9 10.5304 8.91111 10.3721 8.75287C10.2139 8.59464 10.125 8.38003 10.125 8.15625Z" fill="#2563EB"/>
</g>
<defs>
<clipPath id="clip0_32_44">
<path d="M0 0H15.75V18H0V0Z" fill="white"/>
</clipPath>
</defs>
</svg>
