<svg width="18" height="28" viewBox="0 0 18 28" fill="none" xmlns="http://www.w3.org/2000/svg">
<path d="M18 28H0V0H18V28Z" stroke="#E5E7EB"/>
<g clip-path="url(#clip0_32_228)">
<path d="M9 22.25C11.3869 22.25 13.6761 21.3018 15.364 19.614C17.0518 17.9261 18 15.6369 18 13.25C18 10.8631 17.0518 8.57387 15.364 6.88604C13.6761 5.19821 11.3869 4.25 9 4.25C6.61305 4.25 4.32387 5.19821 2.63604 6.88604C0.948212 8.57387 0 10.8631 0 13.25C0 15.6369 0.948212 17.9261 2.63604 19.614C4.32387 21.3018 6.61305 22.25 9 22.25ZM7.59375 16.0625H8.4375V13.8125H7.59375C7.12617 13.8125 6.75 13.4363 6.75 12.9688C6.75 12.5012 7.12617 12.125 7.59375 12.125H9.28125C9.74883 12.125 10.125 12.5012 10.125 12.9688V16.0625H10.4062C10.8738 16.0625 11.25 16.4387 11.25 16.9062C11.25 17.3738 10.8738 17.75 10.4062 17.75H7.59375C7.12617 17.75 6.75 17.3738 6.75 16.9062C6.75 16.4387 7.12617 16.0625 7.59375 16.0625ZM9 8.75C9.29837 8.75 9.58452 8.86853 9.7955 9.0795C10.0065 9.29048 10.125 9.57663 10.125 9.875C10.125 10.1734 10.0065 10.4595 9.7955 10.6705C9.58452 10.8815 9.29837 11 9 11C8.70163 11 8.41548 10.8815 8.2045 10.6705C7.99353 10.4595 7.875 10.1734 7.875 9.875C7.875 9.57663 7.99353 9.29048 8.2045 9.0795C8.41548 8.86853 8.70163 8.75 9 8.75Z" fill="#2563EB"/>
</g>
<defs>
<clipPath id="clip0_32_228">
<path d="M0 4.25H18V22.25H0V4.25Z" fill="white"/>
</clipPath>
</defs>
</svg>
