<svg width="18" height="20" viewBox="0 0 18 20" fill="none" xmlns="http://www.w3.org/2000/svg">
<g clip-path="url(#clip0_91_658)">
<path d="M8.75023 0C8.05882 0 7.50023 0.558594 7.50023 1.25V2C4.64867 2.57812 2.50023 5.10156 2.50023 8.125V8.85938C2.50023 10.6953 1.82445 12.4688 0.605698 13.8438L0.316635 14.168C-0.0114899 14.5352 -0.0896149 15.0625 0.109604 15.5117C0.308823 15.9609 0.758041 16.25 1.25023 16.25H16.2502C16.7424 16.25 17.1877 15.9609 17.3909 15.5117C17.594 15.0625 17.5119 14.5352 17.1838 14.168L16.8948 13.8438C15.676 12.4688 15.0002 10.6992 15.0002 8.85938V8.125C15.0002 5.10156 12.8518 2.57812 10.0002 2V1.25C10.0002 0.558594 9.44164 0 8.75023 0ZM10.5198 19.2695C10.9885 18.8008 11.2502 18.1641 11.2502 17.5H8.75023H6.25023C6.25023 18.1641 6.51195 18.8008 6.9807 19.2695C7.44945 19.7383 8.08617 20 8.75023 20C9.41429 20 10.051 19.7383 10.5198 19.2695Z" fill="#4B5563"/>
</g>
<defs>
<clipPath id="clip0_91_658">
<path d="M0 0H17.5V20H0V0Z" fill="white"/>
</clipPath>
</defs>
</svg>
