<svg width="48" height="32" viewBox="0 0 48 32" fill="none" xmlns="http://www.w3.org/2000/svg">
<path d="M44 0C46.2091 0 48 1.79086 48 4V28C48 30.2091 46.2091 32 44 32H4C1.79086 32 0 30.2091 0 28V4C0 1.79086 1.79086 0 4 0H44Z" fill="#2563EB"/>
<path d="M44 0C46.2091 0 48 1.79086 48 4V28C48 30.2091 46.2091 32 44 32H4C1.79086 32 0 30.2091 0 28V4C0 1.79086 1.79086 0 4 0H44Z" stroke="#E5E7EB"/>
<path d="M36.7188 24H11.2656V8H36.7188V24Z" stroke="#E5E7EB"/>
<path d="M12.0241 20V11.2727H15.5185C16.1605 11.2727 16.696 11.3679 17.125 11.5582C17.554 11.7486 17.8764 12.0128 18.0923 12.3509C18.3082 12.6861 18.4162 13.0724 18.4162 13.5099C18.4162 13.8509 18.348 14.1506 18.2116 14.4091C18.0753 14.6648 17.8878 14.875 17.6491 15.0398C17.4134 15.2017 17.1435 15.3168 16.8395 15.3849V15.4702C17.1719 15.4844 17.483 15.5781 17.7727 15.7514C18.0653 15.9247 18.3026 16.1676 18.4844 16.4801C18.6662 16.7898 18.7571 17.1591 18.7571 17.5881C18.7571 18.0511 18.642 18.4645 18.4119 18.8281C18.1847 19.1889 17.848 19.4744 17.402 19.6847C16.956 19.8949 16.4063 20 15.7528 20H12.0241ZM13.8693 18.4915H15.3736C15.8878 18.4915 16.2628 18.3935 16.4986 18.1974C16.7344 17.9986 16.8523 17.7344 16.8523 17.4048C16.8523 17.1634 16.794 16.9503 16.6776 16.7656C16.5611 16.581 16.3949 16.4361 16.179 16.331C15.9659 16.2259 15.7116 16.1733 15.4162 16.1733H13.8693V18.4915ZM13.8693 14.9247H15.2372C15.4901 14.9247 15.7145 14.8807 15.9105 14.7926C16.1094 14.7017 16.2656 14.5739 16.3793 14.4091C16.4957 14.2443 16.554 14.0469 16.554 13.8168C16.554 13.5014 16.4418 13.2472 16.2173 13.054C15.9957 12.8608 15.6804 12.7642 15.2713 12.7642H13.8693V14.9247ZM27.658 14.3281H25.7915C25.7575 14.0866 25.6879 13.8722 25.5827 13.6847C25.4776 13.4943 25.3427 13.3324 25.1779 13.1989C25.0131 13.0653 24.8228 12.9631 24.6069 12.892C24.3938 12.821 24.1623 12.7855 23.9123 12.7855C23.4606 12.7855 23.0671 12.8977 22.7319 13.1222C22.3967 13.3437 22.1367 13.6676 21.9521 14.0938C21.7674 14.517 21.6751 15.0312 21.6751 15.6364C21.6751 16.2585 21.7674 16.7812 21.9521 17.2045C22.1396 17.6278 22.4009 17.9474 22.7362 18.1634C23.0714 18.3793 23.4592 18.4872 23.8995 18.4872C24.1467 18.4872 24.3754 18.4545 24.5856 18.3892C24.7987 18.3239 24.9876 18.2287 25.1523 18.1037C25.3171 17.9759 25.4535 17.821 25.5614 17.6392C25.6722 17.4574 25.7489 17.25 25.7915 17.017L27.658 17.0256C27.6097 17.4261 27.489 17.8125 27.2958 18.1847C27.1055 18.554 26.8484 18.8849 26.5245 19.1776C26.2035 19.4673 25.82 19.6974 25.3739 19.8679C24.9308 20.0355 24.4293 20.1193 23.8697 20.1193C23.0913 20.1193 22.3952 19.9432 21.7816 19.5909C21.1708 19.2386 20.6879 18.7287 20.3327 18.0611C19.9805 17.3935 19.8043 16.5852 19.8043 15.6364C19.8043 14.6847 19.9833 13.875 20.3413 13.2074C20.6992 12.5398 21.185 12.0312 21.7987 11.6818C22.4123 11.3295 23.1026 11.1534 23.8697 11.1534C24.3754 11.1534 24.8441 11.2244 25.2759 11.3665C25.7106 11.5085 26.0955 11.7159 26.4308 11.9886C26.766 12.2585 27.0387 12.5895 27.2489 12.9815C27.462 13.3736 27.5984 13.8224 27.658 14.3281ZM30.3214 20H28.3441L31.3569 11.2727H33.7347L36.7433 20H34.766L32.5799 13.267H32.5117L30.3214 20ZM30.1978 16.5696H34.8683V18.0099H30.1978V16.5696Z" fill="white"/>
</svg>
