<svg width="48" height="32" viewBox="0 0 48 32" fill="none" xmlns="http://www.w3.org/2000/svg">
<path d="M44 0C46.2091 0 48 1.79086 48 4V28C48 30.2091 46.2091 32 44 32H4C1.79086 32 0 30.2091 0 28V4C0 1.79086 1.79086 0 4 0H44Z" fill="#374151"/>
<path d="M44 0C46.2091 0 48 1.79086 48 4V28C48 30.2091 46.2091 32 44 32H4C1.79086 32 0 30.2091 0 28V4C0 1.79086 1.79086 0 4 0H44Z" stroke="#E5E7EB"/>
<path d="M31 26H17V6H31V26Z" stroke="#E5E7EB"/>
<g clip-path="url(#clip0_32_164)">
<path d="M23.6555 8.82119L17.5305 11.4462C17.1477 11.6103 16.9344 12.0204 17.0192 12.4251C17.104 12.8298 17.4594 13.1251 17.8751 13.1251V13.3438C17.8751 13.7075 18.1677 14.0001 18.5313 14.0001H29.4688C29.8325 14.0001 30.1251 13.7075 30.1251 13.3438V13.1251C30.5407 13.1251 30.8989 12.8325 30.9809 12.4251C31.063 12.0177 30.8497 11.6075 30.4696 11.4462L24.3446 8.82119C24.1259 8.72822 23.8743 8.72822 23.6555 8.82119ZM20.5001 14.8751H18.7501V20.2427C18.7337 20.2509 18.7173 20.2618 18.7009 20.2728L17.3884 21.1478C17.0684 21.361 16.9235 21.7603 17.0356 22.1294C17.1477 22.4985 17.4895 22.7501 17.8751 22.7501H30.1251C30.5106 22.7501 30.8497 22.4985 30.9618 22.1294C31.0739 21.7603 30.9317 21.361 30.6091 21.1478L29.2966 20.2728C29.2802 20.2618 29.2637 20.2536 29.2473 20.2427V14.8751H27.5001V20.1251H26.4063V14.8751H24.6563V20.1251H23.3438V14.8751H21.5938V20.1251H20.5001V14.8751ZM24.0001 10.5001C24.2321 10.5001 24.4547 10.5923 24.6188 10.7564C24.7829 10.9205 24.8751 11.143 24.8751 11.3751C24.8751 11.6072 24.7829 11.8297 24.6188 11.9938C24.4547 12.1579 24.2321 12.2501 24.0001 12.2501C23.768 12.2501 23.5454 12.1579 23.3814 11.9938C23.2173 11.8297 23.1251 11.6072 23.1251 11.3751C23.1251 11.143 23.2173 10.9205 23.3814 10.7564C23.5454 10.5923 23.768 10.5001 24.0001 10.5001Z" fill="white"/>
</g>
<defs>
<clipPath id="clip0_32_164">
<path d="M17 8.75H31V22.75H17V8.75Z" fill="white"/>
</clipPath>
</defs>
</svg>
