<svg width="48" height="32" viewBox="0 0 48 32" fill="none" xmlns="http://www.w3.org/2000/svg">
<path d="M44 0C46.2091 0 48 1.79086 48 4V28C48 30.2091 46.2091 32 44 32H4C1.79086 32 0 30.2091 0 28V4C0 1.79086 1.79086 0 4 0H44Z" fill="#3B82F6"/>
<path d="M44 0C46.2091 0 48 1.79086 48 4V28C48 30.2091 46.2091 32 44 32H4C1.79086 32 0 30.2091 0 28V4C0 1.79086 1.79086 0 4 0H44Z" stroke="#E5E7EB"/>
<path d="M32 28H16V4H32V28Z" stroke="#E5E7EB"/>
<path d="M32 24H16V8H32V24Z" stroke="#E5E7EB"/>
<path d="M18 9C16.8969 9 16 9.89688 16 11V21C16 22.1031 16.8969 23 18 23H30C31.1031 23 32 22.1031 32 21V14C32 12.8969 31.1031 12 30 12H18.5C18.225 12 18 11.775 18 11.5C18 11.225 18.225 11 18.5 11H30C30.5531 11 31 10.5531 31 10C31 9.44687 30.5531 9 30 9H18ZM29 16.5C29.2652 16.5 29.5196 16.6054 29.7071 16.7929C29.8946 16.9804 30 17.2348 30 17.5C30 17.7652 29.8946 18.0196 29.7071 18.2071C29.5196 18.3946 29.2652 18.5 29 18.5C28.7348 18.5 28.4804 18.3946 28.2929 18.2071C28.1054 18.0196 28 17.7652 28 17.5C28 17.2348 28.1054 16.9804 28.2929 16.7929C28.4804 16.6054 28.7348 16.5 29 16.5Z" fill="white"/>
</svg>
