<svg width="48" height="32" viewBox="0 0 48 32" fill="none" xmlns="http://www.w3.org/2000/svg">
<path d="M44 0C46.2091 0 48 1.79086 48 4V28C48 30.2091 46.2091 32 44 32H4C1.79086 32 0 30.2091 0 28V4C0 1.79086 1.79086 0 4 0H44Z" fill="url(#paint0_linear_32_130)"/>
<path d="M44 0C46.2091 0 48 1.79086 48 4V28C48 30.2091 46.2091 32 44 32H4C1.79086 32 0 30.2091 0 28V4C0 1.79086 1.79086 0 4 0H44Z" stroke="#E5E7EB"/>
<path d="M35.25 30H12.75V2H35.25V30Z" stroke="#E5E7EB"/>
<g clip-path="url(#clip0_32_130)">
<path d="M31.1133 14.5352C31.1133 14.5352 31.4102 15.9883 31.4766 16.293H30.1719C30.3008 15.9453 30.7969 14.5938 30.7969 14.5938C30.7891 14.6055 30.9258 14.2383 31.0039 14.0117L31.1133 14.5352ZM35.25 8.625V22.375C35.25 23.4102 34.4102 24.25 33.375 24.25H14.625C13.5898 24.25 12.75 23.4102 12.75 22.375V8.625C12.75 7.58984 13.5898 6.75 14.625 6.75H33.375C34.4102 6.75 35.25 7.58984 35.25 8.625ZM18.707 18.4375L21.1758 12.375H19.5156L17.9805 16.5156L17.8125 15.6758L17.2656 12.8867C17.1758 12.5 16.8984 12.3906 16.5547 12.375H14.0273L14 12.4961C14.6172 12.6523 15.168 12.8789 15.6484 13.1641L17.0469 18.4375H18.707ZM22.3945 18.4453L23.3789 12.375H21.8086L20.8281 18.4453H22.3945ZM27.8594 16.4609C27.8672 15.7695 27.4453 15.2422 26.543 14.8086C25.9922 14.5312 25.6562 14.3438 25.6562 14.0586C25.6641 13.8008 25.9414 13.5352 26.5586 13.5352C27.0703 13.5234 27.4453 13.6445 27.7266 13.7656L27.8672 13.832L28.082 12.5195C27.7734 12.3984 27.2812 12.2617 26.6758 12.2617C25.125 12.2617 24.0352 13.0898 24.0273 14.2695C24.0156 15.1406 24.8086 15.625 25.4023 15.918C26.0078 16.2148 26.2148 16.4102 26.2148 16.6719C26.207 17.0781 25.7227 17.2656 25.2734 17.2656C24.6484 17.2656 24.3125 17.168 23.8008 16.9414L23.5938 16.8438L23.375 18.207C23.7422 18.375 24.4219 18.5234 25.125 18.5312C26.7734 18.5352 27.8477 17.7188 27.8594 16.4609ZM33.375 18.4453L32.1094 12.375H30.8945C30.5195 12.375 30.2344 12.4844 30.0742 12.8789L27.7422 18.4453H29.3906C29.3906 18.4453 29.6602 17.6953 29.7188 17.5352H31.7344C31.7812 17.75 31.9219 18.4453 31.9219 18.4453H33.375Z" fill="white"/>
</g>
<defs>
<linearGradient id="paint0_linear_32_130" x1="0" y1="16" x2="48" y2="16" gradientUnits="userSpaceOnUse">
<stop stop-color="#2563EB"/>
<stop offset="1" stop-color="#60A5FA"/>
</linearGradient>
<clipPath id="clip0_32_130">
<path d="M12.75 5.5H35.25V25.5H12.75V5.5Z" fill="white"/>
</clipPath>
</defs>
</svg>
